<svg width="52" height="52" fill="none" xmlns="http://www.w3.org/2000/svg"><path d="M5.778 37.556a2.889 2.889 0 1 1-5.778 0 2.889 2.889 0 0 1 5.778 0ZM5.778 49.111a2.889 2.889 0 1 1-5.778 0 2.889 2.889 0 0 1 5.778 0ZM17.333 14.444a2.889 2.889 0 1 1-5.777 0 2.889 2.889 0 0 1 5.777 0ZM17.333 26a2.889 2.889 0 1 1-5.777 0 2.889 2.889 0 0 1 5.777 0ZM17.333 37.556a2.889 2.889 0 1 1-5.777 0 2.889 2.889 0 0 1 5.777 0ZM17.333 49.111a2.889 2.889 0 1 1-5.777 0 2.889 2.889 0 0 1 5.777 0ZM28.889 14.444a2.889 2.889 0 1 1-5.778 0 2.889 2.889 0 0 1 5.778 0ZM28.889 26a2.889 2.889 0 1 1-5.778 0 2.889 2.889 0 0 1 5.778 0ZM28.889 37.556a2.889 2.889 0 1 1-5.778 0 2.889 2.889 0 0 1 5.778 0ZM28.889 49.111a2.889 2.889 0 1 1-5.778 0 2.889 2.889 0 0 1 5.778 0ZM40.444 2.889a2.889 2.889 0 1 1-5.777 0 2.889 2.889 0 0 1 5.777 0ZM40.444 14.444a2.889 2.889 0 1 1-5.777 0 2.889 2.889 0 0 1 5.777 0ZM40.444 26a2.889 2.889 0 1 1-5.777 0 2.889 2.889 0 0 1 5.777 0ZM40.444 37.556a2.889 2.889 0 1 1-5.777 0 2.889 2.889 0 0 1 5.777 0ZM40.444 49.111a2.889 2.889 0 1 1-5.777 0 2.889 2.889 0 0 1 5.777 0ZM52 2.889a2.889 2.889 0 1 1-5.778 0 2.889 2.889 0 0 1 5.778 0ZM52 14.444a2.889 2.889 0 1 1-5.778 0 2.889 2.889 0 0 1 5.778 0ZM52 26a2.889 2.889 0 1 1-5.778 0A2.889 2.889 0 0 1 52 26ZM52 37.556a2.889 2.889 0 1 1-5.778 0 2.889 2.889 0 0 1 5.778 0ZM52 49.111a2.889 2.889 0 1 1-5.778 0 2.889 2.889 0 0 1 5.778 0Z" fill="#E6A40B"/></svg>