<svg width="32" height="32" viewBox="0 0 32 32" fill="none" xmlns="http://www.w3.org/2000/svg">
<circle cx="16" cy="16" r="16" fill="white"/>
<path d="M23 10.5455H22.18L20.48 5.44C20.3393 5.01902 20.0836 4.65526 19.7474 4.39776C19.4112 4.14027 19.0108 4.00144 18.6 4H17C16.45 4 16 4.49091 16 5.09091C16 5.69091 16.45 6.18182 17 6.18182H18.6L20.06 10.5455H15.25L14.89 9.45455H14.98C15.53 9.45455 15.98 8.96364 15.98 8.36364C15.98 7.76364 15.53 7.27273 14.98 7.27273H12C11.45 7.27273 11 7.76364 11 8.36364C11 8.96364 11.45 9.45455 12 9.45455H12.75L14.57 14.9091H13.9C13.46 12.4764 11.59 10.6764 9.25 10.5564C6.45 10.4036 4 12.9455 4 16C4 19.0545 6.2 21.4545 9 21.4545C11.46 21.4545 13.45 19.6109 13.9 17.0909H18.1C18.54 19.5236 20.41 21.3236 22.75 21.4436C25.55 21.5855 28 19.0545 28 15.9891C28 12.9455 25.8 10.5455 23 10.5455ZM10 17.0909H11.82C11.4 18.4327 10.22 19.36 8.8 19.2618C7.31 19.1636 6.07 17.7891 6 16.1527C5.93 14.2436 7.27 12.7273 9 12.7273C10.33 12.7273 11.42 13.6327 11.82 14.9091H10C9.45 14.9091 9 15.4 9 16C9 16.6 9.45 17.0909 10 17.0909ZM18.1 14.9091H16.7L15.97 12.7273H19C18.56 13.36 18.24 14.0909 18.1 14.9091ZM22.88 19.2727C21.34 19.2073 20.04 17.7782 20 16.0873C19.98 15.04 20.39 14.1236 21.05 13.5127L21.67 15.3673C21.86 15.9345 22.43 16.2291 22.95 16.0218C23.47 15.8145 23.74 15.1927 23.55 14.6255L22.92 12.7382L22.93 12.7273C23.3309 12.7124 23.7305 12.7862 24.1045 12.9444C24.4785 13.1027 24.8193 13.3419 25.1062 13.6478C25.3932 13.9537 25.6203 14.3198 25.7739 14.7241C25.9275 15.1283 26.0044 15.5624 26 16C26 17.8764 24.62 19.3382 22.88 19.2727ZM15 24.7273H11L17 28V25.8182H21L15 22.5455V24.7273Z" fill="url(#paint0_linear_459_172)"/>
<defs>
<linearGradient id="paint0_linear_459_172" x1="16" y1="4" x2="16" y2="28" gradientUnits="userSpaceOnUse">
<stop stop-color="#FFBB00"/>
<stop offset="1" stop-color="#E5A40B"/>
</linearGradient>
</defs>
</svg>
